<svg xmlns="http://www.w3.org/2000/svg" viewBox="0 0 1000 700" preserveAspectRatio="xMidYMid slice">
  <defs>
    <radialGradient id="glow" cx="50%" cy="50%" r="50%">
      <stop offset="0%" stop-color="#f0eeff" stop-opacity="0.9"/>
      <stop offset="60%" stop-color="#9a95ff" stop-opacity="0.35"/>
      <stop offset="100%" stop-color="#9a95ff" stop-opacity="0"/>
    </radialGradient>
  </defs>
  <g>
    <circle cx="195" cy="335" r="1.45" fill="#9a95ff" opacity="0.22"/>
    <circle cx="656" cy="556" r="1.09" fill="#f0eeff" opacity="0.48"/>
    <circle cx="910" cy="648" r="1.39" fill="#9a95ff" opacity="0.61"/>
    <circle cx="351" cy="357" r="1.05" fill="#c8c4e8" opacity="0.36"/>
    <circle cx="261" cy="221" r="0.65" fill="#f0eeff" opacity="0.68"/>
    <circle cx="828" cy="602" r="1.67" fill="#9a95ff" opacity="0.49"/>
    <circle cx="913" cy="244" r="0.94" fill="#c8c4e8" opacity="0.36"/>
    <circle cx="878" cy="553" r="1.1" fill="#c8c4e8" opacity="0.43"/>
    <circle cx="935" cy="604" r="0.99" fill="#c8c4e8" opacity="0.35"/>
    <circle cx="129" cy="214" r="1.37" fill="#f0eeff" opacity="0.47"/>
    <circle cx="44" cy="544" r="1.51" fill="#f0eeff" opacity="0.24"/>
    <circle cx="603" cy="398" r="1.25" fill="#9a95ff" opacity="0.27"/>
    <circle cx="956" cy="287" r="1.64" fill="#9a95ff" opacity="0.59"/>
    <circle cx="797" cy="189" r="0.73" fill="#9a95ff" opacity="0.39"/>
    <circle cx="538" cy="206" r="1.46" fill="#c8c4e8" opacity="0.24"/>
    <circle cx="371" cy="381" r="1.56" fill="#c8c4e8" opacity="0.6"/>
    <circle cx="419" cy="145" r="0.64" fill="#c8c4e8" opacity="0.36"/>
    <circle cx="415" cy="169" r="1.64" fill="#9a95ff" opacity="0.45"/>
    <circle cx="496" cy="242" r="1.57" fill="#f0eeff" opacity="0.51"/>
    <circle cx="297" cy="33" r="1.23" fill="#9a95ff" opacity="0.47"/>
    <circle cx="146" cy="73" r="1.36" fill="#9a95ff" opacity="0.47"/>
    <circle cx="989" cy="314" r="1.07" fill="#f0eeff" opacity="0.33"/>
    <circle cx="667" cy="168" r="1.46" fill="#f0eeff" opacity="0.38"/>
    <circle cx="627" cy="161" r="0.6" fill="#f0eeff" opacity="0.69"/>
    <circle cx="397" cy="332" r="1.07" fill="#c8c4e8" opacity="0.26"/>
    <circle cx="558" cy="302" r="1.49" fill="#c8c4e8" opacity="0.31"/>
    <circle cx="239" cy="672" r="1.47" fill="#f0eeff" opacity="0.46"/>
    <circle cx="638" cy="139" r="1.33" fill="#f0eeff" opacity="0.61"/>
    <circle cx="963" cy="27" r="1.06" fill="#c8c4e8" opacity="0.63"/>
    <circle cx="988" cy="228" r="1.07" fill="#f0eeff" opacity="0.56"/>
    <circle cx="386" cy="20" r="1.66" fill="#c8c4e8" opacity="0.6"/>
    <circle cx="669" cy="438" r="1.25" fill="#f0eeff" opacity="0.4"/>
    <circle cx="262" cy="622" r="1.31" fill="#9a95ff" opacity="0.69"/>
    <circle cx="522" cy="159" r="1.66" fill="#f0eeff" opacity="0.36"/>
    <circle cx="139" cy="139" r="0.91" fill="#c8c4e8" opacity="0.35"/>
    <circle cx="717" cy="27" r="1.43" fill="#9a95ff" opacity="0.57"/>
    <circle cx="665" cy="312" r="1.21" fill="#9a95ff" opacity="0.38"/>
    <circle cx="223" cy="36" r="1.06" fill="#c8c4e8" opacity="0.26"/>
    <circle cx="496" cy="197" r="1.43" fill="#c8c4e8" opacity="0.39"/>
    <circle cx="697" cy="431" r="1.38" fill="#9a95ff" opacity="0.68"/>
    <circle cx="654" cy="82" r="1.02" fill="#c8c4e8" opacity="0.55"/>
    <circle cx="760" cy="623" r="0.7" fill="#c8c4e8" opacity="0.39"/>
    <circle cx="572" cy="319" r="1.15" fill="#9a95ff" opacity="0.38"/>
    <circle cx="205" cy="638" r="1.39" fill="#f0eeff" opacity="0.47"/>
    <circle cx="985" cy="308" r="0.84" fill="#f0eeff" opacity="0.27"/>
    <circle cx="613" cy="138" r="1.01" fill="#9a95ff" opacity="0.71"/>
    <circle cx="169" cy="378" r="1.42" fill="#f0eeff" opacity="0.27"/>
    <circle cx="280" cy="271" r="1.25" fill="#c8c4e8" opacity="0.46"/>
    <circle cx="176" cy="238" r="1.7" fill="#c8c4e8" opacity="0.44"/>
    <circle cx="729" cy="486" r="0.96" fill="#9a95ff" opacity="0.55"/>
    <circle cx="88" cy="22" r="0.95" fill="#c8c4e8" opacity="0.33"/>
    <circle cx="640" cy="413" r="1.12" fill="#9a95ff" opacity="0.57"/>
    <circle cx="788" cy="460" r="0.67" fill="#9a95ff" opacity="0.58"/>
    <circle cx="26" cy="250" r="1.37" fill="#f0eeff" opacity="0.64"/>
    <circle cx="6" cy="74" r="1.52" fill="#f0eeff" opacity="0.52"/>
    <circle cx="873" cy="371" r="0.65" fill="#f0eeff" opacity="0.39"/>
    <circle cx="169" cy="202" r="1.36" fill="#c8c4e8" opacity="0.33"/>
    <circle cx="442" cy="269" r="1.12" fill="#c8c4e8" opacity="0.68"/>
    <circle cx="812" cy="441" r="1.42" fill="#c8c4e8" opacity="0.65"/>
    <circle cx="109" cy="186" r="0.6" fill="#c8c4e8" opacity="0.6"/>
  </g>
  <g stroke="#9a95ff" stroke-width="0.9" fill="none" opacity="0.20" stroke-linecap="round">
    <line x1="130" y1="95" x2="215" y2="140"/>
    <line x1="215" y1="140" x2="285" y2="85"/>
    <line x1="285" y1="85" x2="330" y2="175"/>
    <line x1="330" y1="175" x2="235" y2="205"/>
    <line x1="235" y1="205" x2="160" y2="165"/>
    <line x1="160" y1="165" x2="130" y2="95"/>
    <line x1="215" y1="140" x2="235" y2="205"/>
    <line x1="690" y1="150" x2="770" y2="205"/>
    <line x1="770" y1="205" x2="860" y2="155"/>
    <line x1="770" y1="205" x2="800" y2="275"/>
    <line x1="800" y1="275" x2="720" y2="300"/>
    <line x1="180" y1="520" x2="300" y2="480"/>
    <line x1="300" y1="480" x2="270" y2="590"/>
    <line x1="270" y1="590" x2="180" y2="520"/>
    <line x1="270" y1="590" x2="360" y2="620"/>
    <line x1="180" y1="520" x2="110" y2="470"/>
  </g>
  <g>
    <circle cx="130" cy="95" r="6" fill="url(#glow)" opacity="0.5"/>
    <circle cx="130" cy="95" r="1.6" fill="#f0eeff" opacity="0.8"/>
    <circle cx="215" cy="140" r="6" fill="url(#glow)" opacity="0.5"/>
    <circle cx="215" cy="140" r="1.6" fill="#f0eeff" opacity="0.8"/>
    <circle cx="285" cy="85" r="6" fill="url(#glow)" opacity="0.5"/>
    <circle cx="285" cy="85" r="1.6" fill="#f0eeff" opacity="0.8"/>
    <circle cx="330" cy="175" r="6" fill="url(#glow)" opacity="0.5"/>
    <circle cx="330" cy="175" r="1.6" fill="#f0eeff" opacity="0.8"/>
    <circle cx="235" cy="205" r="6" fill="url(#glow)" opacity="0.5"/>
    <circle cx="235" cy="205" r="1.6" fill="#f0eeff" opacity="0.8"/>
    <circle cx="160" cy="165" r="6" fill="url(#glow)" opacity="0.5"/>
    <circle cx="160" cy="165" r="1.6" fill="#f0eeff" opacity="0.8"/>
    <circle cx="690" cy="150" r="6" fill="url(#glow)" opacity="0.5"/>
    <circle cx="690" cy="150" r="1.6" fill="#f0eeff" opacity="0.8"/>
    <circle cx="770" cy="205" r="6" fill="url(#glow)" opacity="0.5"/>
    <circle cx="770" cy="205" r="1.6" fill="#f0eeff" opacity="0.8"/>
    <circle cx="860" cy="155" r="6" fill="url(#glow)" opacity="0.5"/>
    <circle cx="860" cy="155" r="1.6" fill="#f0eeff" opacity="0.8"/>
    <circle cx="800" cy="275" r="6" fill="url(#glow)" opacity="0.5"/>
    <circle cx="800" cy="275" r="1.6" fill="#f0eeff" opacity="0.8"/>
    <circle cx="720" cy="300" r="6" fill="url(#glow)" opacity="0.5"/>
    <circle cx="720" cy="300" r="1.6" fill="#f0eeff" opacity="0.8"/>
    <circle cx="180" cy="520" r="6" fill="url(#glow)" opacity="0.5"/>
    <circle cx="180" cy="520" r="1.6" fill="#f0eeff" opacity="0.8"/>
    <circle cx="300" cy="480" r="6" fill="url(#glow)" opacity="0.5"/>
    <circle cx="300" cy="480" r="1.6" fill="#f0eeff" opacity="0.8"/>
    <circle cx="270" cy="590" r="6" fill="url(#glow)" opacity="0.5"/>
    <circle cx="270" cy="590" r="1.6" fill="#f0eeff" opacity="0.8"/>
    <circle cx="360" cy="620" r="6" fill="url(#glow)" opacity="0.5"/>
    <circle cx="360" cy="620" r="1.6" fill="#f0eeff" opacity="0.8"/>
    <circle cx="110" cy="470" r="6" fill="url(#glow)" opacity="0.5"/>
    <circle cx="110" cy="470" r="1.6" fill="#f0eeff" opacity="0.8"/>
  </g>
</svg>
